<svg width="200" height="200" viewBox="0 0 200 200" fill="none" xmlns="http://www.w3.org/2000/svg">
<path d="M76.5572 0.321304C73.8463 1.14195 71.4104 3.17402 70.0353 5.83134C69.4067 6.96462 69.2889 8.29328 69.171 13.5298L69.0138 19.8995H63.6314C57.1881 19.8995 54.8701 20.4466 52.5128 22.5569C50.7448 24.12 49.0554 27.2853 49.0554 28.9657V30.0208L37.5833 30.138C27.2112 30.2553 25.9147 30.3334 24.5789 30.9978C22.6538 31.9356 20.9644 33.616 19.8643 35.6871L19 37.2894V115.055V192.821L19.8643 194.384C20.8465 196.221 22.7717 198.097 24.6968 199.113C26.0326 199.816 28.7435 199.855 98.3621 199.972C152.894 200.05 171.084 199.972 172.342 199.621C176.074 198.605 179.254 195.486 180 191.5C180.511 188.843 180.239 133.023 179.728 133.023C179.571 133.023 179.728 133.023 174.463 137.642L169.67 142.41V166.17V189.89H99.3443H29.0185V114.86V39.8295L38.8798 39.9076L48.7804 40.0248L49.3305 42.1741C49.6448 43.3465 50.2734 44.9096 50.7448 45.613C51.8056 47.1762 54.5558 49.091 56.5595 49.599C57.5024 49.8726 72.8641 49.9507 100.209 49.9117C140.44 49.7944 142.443 49.7553 143.74 49.0519C145.469 48.1531 147.59 46.1992 148.297 44.8315C148.612 44.2453 149.044 42.8776 149.28 41.7834L149.712 39.8295H159.691H169.67V48.7002V142.41L174.463 137.642L179.728 133.023L179.767 42.5649C179.689 39.3996 179.414 37.1721 179.021 36.2733C178.078 34.124 175.956 31.9747 173.795 30.9978C171.87 30.099 171.517 30.0599 160.752 30.0599H149.672L149.24 27.9497C148.455 24.1981 145.508 21.15 141.776 20.3294C140.793 20.0949 137.65 19.8995 134.822 19.8995H129.596V15.2883C129.596 7.66802 128.614 4.46359 125.55 2.15797C122.681 -0.0304103 122.721 -0.0304113 99.1871 0.00866699C87.2828 0.00866699 77.1072 0.164991 76.5572 0.321304ZM119.381 20.0949V30.0599H129.4H139.418V34.9447V39.8295H99.1479H58.8775V34.9447V30.0599L69.0138 29.9817L79.1109 29.8645L79.2288 19.9777L79.3073 10.1299H99.3443H119.381V20.0949Z" fill="white"/>
<path d="M138.797 54.4932C137.273 55.0401 131.414 60.7432 97.2344 94.8448C75.3594 116.681 56.9609 135.314 56.3359 136.251C55.0078 138.282 47.7812 159.767 47.7812 161.603V162.853L32.5 162.618V167.696V172.813L59.6953 172.814L71.0625 168.985C77.5469 166.837 83.1328 164.728 84.1484 164.064C85.0859 163.439 103.719 145.04 125.555 123.165C163.445 85.1964 165.281 83.2823 165.945 81.251C166.727 78.8292 166.57 75.7823 165.555 73.751C164.617 71.9151 148.719 55.9385 146.805 54.962C144.773 53.9073 141.102 53.6729 138.797 54.4932ZM149.539 71.0557L156.57 78.087L121.219 113.439L85.8672 148.79L78.7578 141.681L71.6094 134.532L106.844 99.2979C126.258 79.8839 142.195 64.0245 142.312 64.0245C142.43 64.0245 145.672 67.1885 149.539 71.0557ZM78.3281 155.86C77.9766 156.173 57.8203 162.892 57.6641 162.735C57.5859 162.618 63.4844 144.61 64.3828 142.189C64.5391 141.798 66.8438 143.829 71.6094 148.595C75.4766 152.462 78.4844 155.704 78.3281 155.86Z" fill="white"/>
<path d="M32.5 115V120H55.6852H68L73 115L78 110H58.4887H32.5V115Z" fill="white"/>
<path d="M166.5 115V110H156.315H144L139 115L134 120H153.511H166.5V115Z" fill="white"/>
<path d="M166.5 95V90H163.5L158.5 95L153.5 100L153.511 100H166.5V95Z" fill="white"/>
<path d="M32.5 95V100H55.6852H88L93 95L98 90H58.4887H32.5V95Z" fill="white"/>
<path d="M32.5 75V80H55.6852H108L113 75L118 70H58.4887H32.5V75Z" fill="white"/>
</svg>
