<svg width="200" height="200" viewBox="0 0 200 200" fill="none" xmlns="http://www.w3.org/2000/svg">
<path d="M95.1173 7.26562C72.422 9.57031 53.3204 23.2031 44.5314 43.3594C42.8907 47.0703 43.3595 46.7969 37.3048 47.5781C31.4454 48.3594 24.5314 51.0547 19.0236 54.7266C15.8204 56.9141 9.53137 63.2422 7.46106 66.4062C-4.14051 84.2188 -1.91394 107.109 12.8907 121.875C18.7111 127.734 28.0861 132.773 34.9611 133.828L36.7189 134.062V161.328V188.555L37.6173 189.844C38.0861 190.547 38.9845 191.523 39.5704 191.953L40.6642 192.773H100C159.297 192.773 159.336 192.773 160.391 191.953C160.977 191.523 161.836 190.664 162.266 190.078C163.086 189.023 163.086 188.594 163.203 161.523L163.281 134.062L165.039 133.828C167.656 133.398 172.461 131.758 175.742 130.078C194.844 120.43 204.297 98.3203 198.047 78.0078C195.274 69.0234 188.633 59.9609 181.016 54.7656C174.922 50.6641 166.016 47.3828 160.352 47.2266C157.305 47.1484 157.031 46.9141 155.469 43.3594C150.781 32.6172 142.461 22.9688 132.188 16.3281C126.68 12.7734 117.227 9.14062 110.547 8.04688C106.836 7.42188 98.047 6.95312 95.1173 7.26562ZM109.961 19.8828C127.109 23.5156 140.938 35.9375 146.524 52.6172C147.461 55.4297 148.008 56.4844 149.063 57.4219C149.805 58.0469 150.703 58.5938 151.094 58.6328C151.445 58.6328 153.789 58.7109 156.25 58.7891C179.375 59.4141 193.828 81.1328 185.508 102.734C182.383 110.898 174.844 118.359 166.953 121.133C164.18 122.07 159.453 123.047 157.461 123.047C155.469 123.047 153.477 124.219 152.461 126.016C151.602 127.5 151.563 127.773 151.563 141.68V155.859H100H48.4376V141.68C48.4376 127.773 48.3986 127.5 47.5392 126.016C46.5236 124.18 44.5314 123.047 42.3829 123.047C41.5236 123.047 39.2189 122.695 37.2657 122.305C27.7736 120.352 19.5704 114.023 15.2736 105.352C10.5079 95.8203 10.5861 85.5859 15.4689 76.1719C20.9767 65.4688 31.3282 59.1016 43.7501 58.7891C46.2111 58.75 48.5548 58.6719 48.9064 58.6328C49.297 58.6328 50.1954 58.0469 50.9376 57.4219C51.9923 56.4844 52.5392 55.4297 53.4767 52.6172C59.4923 34.5312 75.3517 21.5234 94.1798 19.1406C98.2032 18.6719 105.781 19.0234 109.961 19.8828ZM151.563 174.219V180.859H100H48.4376V174.219V167.578H100H151.563V174.219Z" fill="white"/>
</svg>
